<svg width="90" height="100" viewBox="0 0 90 100" fill="none" xmlns="http://www.w3.org/2000/svg">
<path d="M17.3273 61.3757C19.8657 66.8519 23.747 71.1729 28.8692 74.3734C32.6347 76.6514 36.6268 78.0484 40.868 78.7555C41.8165 78.9136 41.8694 78.9514 41.8716 79.8845C41.8733 80.653 41.8566 81.4218 41.8739 82.1899C41.885 82.6862 41.7532 82.9087 41.1867 82.824C34.0638 81.7586 27.6293 79.1568 22.1889 74.336C15.7755 68.6531 12.1271 61.4726 10.6372 53.0983C10.0624 49.868 9.87493 46.6181 10.0811 43.3658C10.4757 37.1404 12.085 31.2234 15.0291 25.7029C19.3754 17.5527 25.613 11.341 34.0064 7.38676C37.718 5.63818 41.6446 4.63929 45.7246 4.21559C53.1492 3.44454 60.1977 4.74249 66.8529 8.09746C71.55 10.4653 75.5361 13.7547 78.9734 17.7242C79.2654 18.0615 79.3326 18.2904 78.9642 18.6482C75.7761 21.7447 72.6105 24.8642 69.4307 27.9691C68.7944 28.5904 68.7705 28.5811 68.1398 27.9455C66.7207 26.5153 65.3309 25.0515 63.7529 23.793C59.1097 20.0902 53.8601 18.2462 47.8898 18.8409C39.8551 19.6412 33.6869 23.6076 29.1387 30.1797C26.7123 33.6858 25.2441 37.5812 24.7271 41.8238C23.9328 48.3419 25.0622 54.4006 29.1081 59.7226C32.0753 63.6257 36.0741 65.9899 40.7449 67.3C41.8628 67.6136 41.8632 67.6138 41.864 68.7576L41.8641 68.9809C41.8646 69.6334 41.8651 70.286 41.8624 70.9385C41.8587 71.8077 41.7784 71.8868 40.9162 71.6817C31.9316 69.5451 25.4972 64.4058 22.0981 55.6909C20.5621 51.753 20.0954 47.6767 20.3507 43.4739C20.7552 36.8142 23.0504 30.8845 27.2118 25.7095C31.8567 19.9332 37.7819 16.1182 45.1453 14.8809C53.1001 13.5442 60.261 15.4535 66.4701 20.6859C67.1685 21.2744 67.8573 21.8778 68.5102 22.5155C68.8867 22.8833 69.1307 22.8404 69.4799 22.4829C70.7715 21.1606 72.0748 19.8489 73.4068 18.5675C73.8176 18.1723 73.7686 17.9396 73.3834 17.5739C68.8243 13.2452 63.5172 10.3109 57.3819 8.87584C54.1418 8.11798 50.8582 7.81457 47.5532 8.03777C40.4821 8.51531 34.1147 10.9198 28.568 15.3604C21.0429 21.385 16.4602 29.2335 14.6324 38.6367C13.1108 46.4644 13.9552 54.1009 17.3273 61.3757Z" fill="white"/>
<path d="M59.6896 58.0486C56.6446 60.6548 53.5972 63.2581 50.5507 65.8625C49.8882 66.4378 49.32 66.9927 48.6876 67.4609C48.1257 67.8769 47.9528 68.3672 47.9545 69.0545C47.9761 77.5494 47.9697 86.0443 47.9703 94.5393C47.9704 95.7232 47.9586 95.7343 46.7418 95.7365C46.181 95.7375 45.6202 95.7419 45.0595 95.738C44.13 95.7316 44.0636 95.6653 44.0634 94.7525C44.0615 85.8629 44.0602 76.9733 44.0589 68.0837C44.0584 64.6359 44.0539 61.1881 44.0639 57.7403C44.0651 57.3058 43.9555 56.9396 43.7158 56.5764C40.7755 52.1228 37.8453 47.6625 34.9129 43.2037C34.7676 42.9828 34.5328 42.7737 34.6798 42.4778C34.8293 42.1767 35.1393 42.2449 35.4019 42.2435C36.3988 42.2384 37.3966 42.2645 38.3925 42.2325C38.9005 42.2161 39.1727 42.4396 39.4365 42.8461C41.4709 45.9816 43.5269 49.103 45.5798 52.2264C45.6909 52.3955 45.7824 52.5926 46.0116 52.679C46.3265 52.6029 46.4201 52.3002 46.5721 52.0686C48.5661 49.0307 50.5628 45.9946 52.5332 42.9416C52.861 42.4337 53.2213 42.2217 53.843 42.2233C62.1925 42.2453 70.5421 42.2394 78.8916 42.2415C79.9237 42.2417 79.9919 42.3096 79.9922 43.3334C79.9934 48.6713 79.9685 54.0093 79.9996 59.347C80.0383 66.0008 77.3286 71.3182 72.203 75.444C67.5699 79.1734 62.2063 81.2942 56.4103 82.4107C54.555 82.7681 52.6802 82.9718 50.7984 83.1276C50.336 83.1659 50.1398 83.0157 50.1454 82.5539C50.1562 81.661 50.1607 80.7677 50.1487 79.8748C50.1414 79.335 50.4187 79.1617 50.9185 79.1294C56.3403 78.779 61.47 77.3813 66.226 74.7325C69.3523 72.9913 72.0752 70.78 73.9279 67.6444C75.2319 65.4375 75.9506 63.0463 75.9685 60.4823C76.0002 55.9547 75.9684 51.4266 75.988 46.8988C75.9905 46.3216 75.7984 46.1485 75.2355 46.1498C68.7761 46.1643 62.3166 46.1629 55.8572 46.1526C55.3971 46.1519 55.0723 46.2822 54.8149 46.6753C52.6984 49.906 50.5756 53.1327 48.4418 56.3521C48.095 56.8753 47.9428 57.4129 47.9612 58.045C47.9992 59.3525 47.9735 60.6617 47.9812 61.9702C47.9825 62.1897 47.9201 62.4265 48.0826 62.6201C48.2921 62.6885 48.3973 62.5323 48.5166 62.4299C51.8916 59.5332 55.265 56.6347 58.6384 53.7363L59.7632 52.7698C59.7947 52.7427 59.8246 52.7139 59.856 52.6866C60.5821 52.0554 60.5831 52.0546 61.2 52.7583C61.6792 53.3048 62.1631 53.8475 62.6309 54.4037C63.1337 55.0016 63.1263 55.0738 62.5184 55.6048C61.58 56.4245 60.6363 57.2384 59.6896 58.0486Z" fill="white"/>
<path d="M70.963 52.1127C70.9563 53.4406 70.9936 54.7687 71.0129 56.0968C71.1541 63.0276 67.7243 67.617 61.9526 70.7128C58.8608 72.3712 55.5295 73.2664 52.0384 73.5747C51.6051 73.613 51.172 73.6545 50.7383 73.6875C50.3508 73.717 50.1609 73.5404 50.1638 73.1419C50.1708 72.1664 50.1729 71.1908 50.1651 70.2154C50.1609 69.6833 50.4817 69.5703 50.9299 69.5362C54.3219 69.2781 57.5564 68.4435 60.5405 66.78C63.5324 65.1122 65.8014 62.821 66.6771 59.386C66.9719 58.2299 67.0087 57.051 66.9977 55.8657C66.9859 54.5997 67.0107 53.3333 66.9903 52.0675C66.9809 51.4829 67.2333 51.2264 67.8038 51.2313C68.5717 51.2378 69.3397 51.2303 70.1077 51.2329C70.6892 51.2349 70.9662 51.4988 70.963 52.1127Z" fill="white"/>
</svg>
