<svg width="417" height="100" viewBox="0 0 417 100" fill="none" xmlns="http://www.w3.org/2000/svg">
<path d="M17.3273 61.3757C19.8657 66.8519 23.747 71.1729 28.8692 74.3734C32.6347 76.6514 36.6268 78.0484 40.868 78.7555C41.8165 78.9136 41.8694 78.9514 41.8716 79.8845C41.8733 80.653 41.8566 81.4218 41.8739 82.1899C41.885 82.6862 41.7532 82.9087 41.1867 82.824C34.0638 81.7586 27.6293 79.1568 22.1889 74.336C15.7755 68.6531 12.1271 61.4726 10.6372 53.0983C10.0624 49.868 9.87493 46.6181 10.0811 43.3658C10.4757 37.1404 12.085 31.2234 15.0291 25.7029C19.3754 17.5527 25.613 11.341 34.0064 7.38676C37.718 5.63818 41.6446 4.63929 45.7246 4.21559C53.1492 3.44454 60.1977 4.74249 66.8529 8.09746C71.55 10.4653 75.5361 13.7547 78.9734 17.7242C79.2654 18.0615 79.3326 18.2904 78.9642 18.6482C75.7761 21.7447 72.6105 24.8642 69.4307 27.9691C68.7944 28.5904 68.7705 28.5811 68.1398 27.9455C66.7207 26.5153 65.3309 25.0515 63.7529 23.793C59.1097 20.0902 53.8601 18.2462 47.8898 18.8409C39.8551 19.6412 33.6869 23.6076 29.1387 30.1797C26.7123 33.6858 25.2441 37.5812 24.7271 41.8238C23.9328 48.3419 25.0622 54.4006 29.1081 59.7226C32.0753 63.6257 36.0741 65.9899 40.7449 67.3C41.8628 67.6136 41.8632 67.6138 41.864 68.7576L41.8641 68.9809C41.8646 69.6334 41.8651 70.286 41.8624 70.9385C41.8587 71.8077 41.7784 71.8868 40.9162 71.6817C31.9316 69.5451 25.4972 64.4058 22.0981 55.6909C20.5621 51.753 20.0954 47.6767 20.3507 43.4739C20.7552 36.8142 23.0504 30.8845 27.2118 25.7095C31.8567 19.9332 37.7819 16.1182 45.1453 14.8809C53.1001 13.5442 60.261 15.4535 66.4701 20.6859C67.1685 21.2744 67.8573 21.8778 68.5102 22.5155C68.8867 22.8833 69.1307 22.8404 69.4799 22.4829C70.7715 21.1606 72.0748 19.8489 73.4068 18.5675C73.8176 18.1723 73.7686 17.9396 73.3834 17.5739C68.8243 13.2452 63.5172 10.3109 57.3819 8.87584C54.1418 8.11798 50.8582 7.81457 47.5532 8.03777C40.4821 8.51531 34.1147 10.9198 28.568 15.3604C21.0429 21.385 16.4602 29.2335 14.6324 38.6367C13.1108 46.4644 13.9552 54.1009 17.3273 61.3757Z" fill="white"/>
<path d="M59.6896 58.0486C56.6446 60.6548 53.5972 63.2581 50.5507 65.8625C49.8882 66.4378 49.32 66.9927 48.6876 67.4609C48.1257 67.8769 47.9528 68.3672 47.9545 69.0545C47.9761 77.5494 47.9697 86.0443 47.9703 94.5393C47.9704 95.7232 47.9586 95.7343 46.7418 95.7365C46.181 95.7375 45.6202 95.7419 45.0595 95.738C44.13 95.7316 44.0636 95.6653 44.0634 94.7525C44.0615 85.8629 44.0602 76.9733 44.0589 68.0837C44.0584 64.6359 44.0539 61.1881 44.0639 57.7403C44.0651 57.3058 43.9555 56.9396 43.7158 56.5764C40.7755 52.1228 37.8453 47.6625 34.9129 43.2037C34.7676 42.9828 34.5328 42.7737 34.6798 42.4778C34.8293 42.1767 35.1393 42.2449 35.4019 42.2435C36.3988 42.2384 37.3966 42.2645 38.3925 42.2325C38.9005 42.2161 39.1727 42.4396 39.4365 42.8461C41.4709 45.9816 43.5269 49.103 45.5798 52.2264C45.6909 52.3955 45.7824 52.5926 46.0116 52.679C46.3265 52.6029 46.4201 52.3002 46.5721 52.0686C48.5661 49.0307 50.5628 45.9946 52.5332 42.9416C52.861 42.4337 53.2213 42.2217 53.843 42.2233C62.1925 42.2453 70.5421 42.2394 78.8916 42.2415C79.9237 42.2417 79.9919 42.3096 79.9922 43.3334C79.9934 48.6713 79.9685 54.0093 79.9996 59.347C80.0383 66.0008 77.3286 71.3182 72.203 75.444C67.5699 79.1734 62.2063 81.2942 56.4103 82.4107C54.555 82.7681 52.6802 82.9718 50.7984 83.1276C50.336 83.1659 50.1398 83.0157 50.1454 82.5539C50.1562 81.661 50.1607 80.7677 50.1487 79.8748C50.1414 79.335 50.4187 79.1617 50.9185 79.1294C56.3403 78.779 61.47 77.3813 66.226 74.7325C69.3523 72.9913 72.0752 70.78 73.9279 67.6444C75.2319 65.4375 75.9506 63.0463 75.9685 60.4823C76.0002 55.9547 75.9684 51.4266 75.988 46.8988C75.9905 46.3216 75.7984 46.1485 75.2355 46.1498C68.7761 46.1643 62.3166 46.1629 55.8572 46.1526C55.3971 46.1519 55.0723 46.2822 54.8149 46.6753C52.6984 49.906 50.5756 53.1327 48.4418 56.3521C48.095 56.8753 47.9428 57.4129 47.9612 58.045C47.9992 59.3525 47.9735 60.6617 47.9812 61.9702C47.9825 62.1897 47.9201 62.4265 48.0826 62.6201C48.2921 62.6885 48.3973 62.5323 48.5166 62.4299C51.8916 59.5332 55.265 56.6347 58.6384 53.7363L59.7632 52.7698C59.7947 52.7427 59.8246 52.7139 59.856 52.6866C60.5821 52.0554 60.5831 52.0546 61.2 52.7583C61.6792 53.3048 62.1631 53.8475 62.6309 54.4037C63.1337 55.0016 63.1263 55.0738 62.5184 55.6048C61.58 56.4245 60.6363 57.2384 59.6896 58.0486Z" fill="white"/>
<path d="M70.963 52.1127C70.9563 53.4406 70.9936 54.7687 71.0129 56.0968C71.1541 63.0276 67.7243 67.617 61.9526 70.7128C58.8608 72.3712 55.5295 73.2664 52.0384 73.5747C51.6051 73.613 51.172 73.6545 50.7383 73.6875C50.3508 73.717 50.1609 73.5404 50.1638 73.1419C50.1708 72.1664 50.1729 71.1908 50.1651 70.2154C50.1609 69.6833 50.4817 69.5703 50.9299 69.5362C54.3219 69.2781 57.5564 68.4435 60.5405 66.78C63.5324 65.1122 65.8014 62.821 66.6771 59.386C66.9719 58.2299 67.0087 57.051 66.9977 55.8657C66.9859 54.5997 67.0107 53.3333 66.9903 52.0675C66.9809 51.4829 67.2333 51.2264 67.8038 51.2313C68.5717 51.2378 69.3397 51.2303 70.1077 51.2329C70.6892 51.2349 70.9662 51.4988 70.963 52.1127Z" fill="white"/>
<path d="M101.938 37.5573V71.3698H94.375V37.5573H101.938ZM93.875 28.6823C93.875 27.5364 94.25 26.5885 95 25.8385C95.7708 25.0677 96.8333 24.6823 98.1875 24.6823C99.5208 24.6823 100.573 25.0677 101.344 25.8385C102.115 26.5885 102.5 27.5364 102.5 28.6823C102.5 29.8073 102.115 30.7448 101.344 31.4948C100.573 32.2448 99.5208 32.6198 98.1875 32.6198C96.8333 32.6198 95.7708 32.2448 95 31.4948C94.25 30.7448 93.875 29.8073 93.875 28.6823ZM125.688 37.5573V43.0573H106.625V37.5573H125.688ZM112.125 29.276H119.656V62.026C119.656 63.0677 119.802 63.8698 120.094 64.4323C120.406 64.9739 120.833 65.3385 121.375 65.526C121.917 65.7135 122.552 65.8073 123.281 65.8073C123.802 65.8073 124.302 65.776 124.781 65.7135C125.26 65.651 125.646 65.5885 125.938 65.526L125.969 71.276C125.344 71.4635 124.615 71.6302 123.781 71.776C122.969 71.9219 122.031 71.9948 120.969 71.9948C119.24 71.9948 117.708 71.6927 116.375 71.0885C115.042 70.4635 114 69.4531 113.25 68.0573C112.5 66.6614 112.125 64.8073 112.125 62.4948V29.276ZM147.844 63.0573L159.812 25.8698H168.469L152.156 71.3698H146.312L147.844 63.0573ZM136.781 25.8698L148.656 63.0573L150.281 71.3698H144.406L128.156 25.8698H136.781ZM186.344 71.9948C183.844 71.9948 181.583 71.5885 179.562 70.776C177.562 69.9427 175.854 68.7864 174.438 67.3073C173.042 65.8281 171.969 64.0885 171.219 62.0885C170.469 60.0885 170.094 57.9323 170.094 55.6198V54.3698C170.094 51.7239 170.479 49.3281 171.25 47.1823C172.021 45.0364 173.094 43.2031 174.469 41.6823C175.844 40.1406 177.469 38.9635 179.344 38.151C181.219 37.3385 183.25 36.9323 185.438 36.9323C187.854 36.9323 189.969 37.3385 191.781 38.151C193.594 38.9635 195.094 40.1094 196.281 41.5885C197.49 43.0469 198.385 44.7864 198.969 46.8073C199.573 48.8281 199.875 51.0573 199.875 53.4948V56.7135H173.75V51.3073H192.438V50.7135C192.396 49.3594 192.125 48.0885 191.625 46.901C191.146 45.7135 190.406 44.7552 189.406 44.026C188.406 43.2969 187.073 42.9323 185.406 42.9323C184.156 42.9323 183.042 43.2031 182.062 43.7448C181.104 44.2656 180.302 45.026 179.656 46.026C179.01 47.026 178.51 48.2344 178.156 49.651C177.823 51.0469 177.656 52.6198 177.656 54.3698V55.6198C177.656 57.0989 177.854 58.4739 178.25 59.7448C178.667 60.9948 179.271 62.0885 180.062 63.026C180.854 63.9635 181.812 64.7031 182.938 65.2448C184.062 65.7656 185.344 66.026 186.781 66.026C188.594 66.026 190.208 65.6614 191.625 64.9323C193.042 64.2031 194.271 63.1719 195.312 61.8385L199.281 65.6823C198.552 66.7448 197.604 67.7656 196.438 68.7448C195.271 69.7031 193.844 70.4844 192.156 71.0885C190.49 71.6927 188.552 71.9948 186.344 71.9948ZM213.312 43.9948V71.3698H205.781V37.5573H212.969L213.312 43.9948ZM223.656 37.3385L223.594 44.3385C223.135 44.2552 222.635 44.1927 222.094 44.151C221.573 44.1094 221.052 44.0885 220.531 44.0885C219.24 44.0885 218.104 44.276 217.125 44.651C216.146 45.0052 215.323 45.526 214.656 46.2135C214.01 46.8802 213.51 47.6927 213.156 48.651C212.802 49.6094 212.594 50.6823 212.531 51.8698L210.812 51.9948C210.812 49.8698 211.021 47.901 211.438 46.0885C211.854 44.276 212.479 42.6823 213.312 41.3073C214.167 39.9323 215.229 38.8594 216.5 38.0885C217.792 37.3177 219.281 36.9323 220.969 36.9323C221.427 36.9323 221.917 36.9739 222.438 37.0573C222.979 37.1406 223.385 37.2344 223.656 37.3385ZM247.344 62.2135C247.344 61.4635 247.156 60.7864 246.781 60.1823C246.406 59.5573 245.688 58.9948 244.625 58.4948C243.583 57.9948 242.042 57.5364 240 57.1198C238.208 56.7239 236.562 56.2552 235.062 55.7135C233.583 55.151 232.312 54.4739 231.25 53.6823C230.188 52.8906 229.365 51.9531 228.781 50.8698C228.198 49.7864 227.906 48.5364 227.906 47.1198C227.906 45.7448 228.208 44.4427 228.812 43.2135C229.417 41.9844 230.281 40.901 231.406 39.9635C232.531 39.026 233.896 38.2864 235.5 37.7448C237.125 37.2031 238.938 36.9323 240.938 36.9323C243.771 36.9323 246.198 37.4114 248.219 38.3698C250.26 39.3073 251.823 40.5885 252.906 42.2135C253.99 43.8177 254.531 45.6302 254.531 47.651H247C247 46.7552 246.771 45.9219 246.312 45.151C245.875 44.3594 245.208 43.7239 244.312 43.2448C243.417 42.7448 242.292 42.4948 240.938 42.4948C239.646 42.4948 238.573 42.7031 237.719 43.1198C236.885 43.5156 236.26 44.0364 235.844 44.6823C235.448 45.3281 235.25 46.0364 235.25 46.8073C235.25 47.3698 235.354 47.8802 235.562 48.3385C235.792 48.776 236.167 49.1823 236.688 49.5573C237.208 49.9114 237.917 50.2448 238.812 50.5573C239.729 50.8698 240.875 51.1719 242.25 51.4635C244.833 52.0052 247.052 52.7031 248.906 53.5573C250.781 54.3906 252.219 55.4739 253.219 56.8073C254.219 58.1198 254.719 59.7864 254.719 61.8073C254.719 63.3073 254.396 64.6823 253.75 65.9323C253.125 67.1614 252.208 68.2344 251 69.151C249.792 70.0469 248.344 70.7448 246.656 71.2448C244.99 71.7448 243.115 71.9948 241.031 71.9948C237.969 71.9948 235.375 71.4531 233.25 70.3698C231.125 69.2656 229.51 67.8594 228.406 66.151C227.323 64.4219 226.781 62.6302 226.781 60.776H234.062C234.146 62.1719 234.531 63.2864 235.219 64.1198C235.927 64.9323 236.802 65.526 237.844 65.901C238.906 66.2552 240 66.4323 241.125 66.4323C242.479 66.4323 243.615 66.2552 244.531 65.901C245.448 65.526 246.146 65.026 246.625 64.401C247.104 63.7552 247.344 63.026 247.344 62.2135ZM269.375 37.5573V71.3698H261.812V37.5573H269.375ZM261.312 28.6823C261.312 27.5364 261.688 26.5885 262.438 25.8385C263.208 25.0677 264.271 24.6823 265.625 24.6823C266.958 24.6823 268.01 25.0677 268.781 25.8385C269.552 26.5885 269.938 27.5364 269.938 28.6823C269.938 29.8073 269.552 30.7448 268.781 31.4948C268.01 32.2448 266.958 32.6198 265.625 32.6198C264.271 32.6198 263.208 32.2448 262.438 31.4948C261.688 30.7448 261.312 29.8073 261.312 28.6823ZM276.188 54.8385V54.1198C276.188 51.6823 276.542 49.4219 277.25 47.3385C277.958 45.2344 278.979 43.4114 280.312 41.8698C281.667 40.3073 283.312 39.0989 285.25 38.2448C287.208 37.3698 289.417 36.9323 291.875 36.9323C294.354 36.9323 296.562 37.3698 298.5 38.2448C300.458 39.0989 302.115 40.3073 303.469 41.8698C304.823 43.4114 305.854 45.2344 306.562 47.3385C307.271 49.4219 307.625 51.6823 307.625 54.1198V54.8385C307.625 57.276 307.271 59.5364 306.562 61.6198C305.854 63.7031 304.823 65.526 303.469 67.0885C302.115 68.6302 300.469 69.8385 298.531 70.7135C296.594 71.5677 294.396 71.9948 291.938 71.9948C289.458 71.9948 287.24 71.5677 285.281 70.7135C283.344 69.8385 281.698 68.6302 280.344 67.0885C278.99 65.526 277.958 63.7031 277.25 61.6198C276.542 59.5364 276.188 57.276 276.188 54.8385ZM283.719 54.1198V54.8385C283.719 56.3594 283.875 57.7969 284.188 59.151C284.5 60.5052 284.99 61.6927 285.656 62.7135C286.323 63.7344 287.177 64.5364 288.219 65.1198C289.26 65.7031 290.5 65.9948 291.938 65.9948C293.333 65.9948 294.542 65.7031 295.562 65.1198C296.604 64.5364 297.458 63.7344 298.125 62.7135C298.792 61.6927 299.281 60.5052 299.594 59.151C299.927 57.7969 300.094 56.3594 300.094 54.8385V54.1198C300.094 52.6198 299.927 51.2031 299.594 49.8698C299.281 48.5156 298.781 47.3177 298.094 46.276C297.427 45.2344 296.573 44.4219 295.531 43.8385C294.51 43.2344 293.292 42.9323 291.875 42.9323C290.458 42.9323 289.229 43.2344 288.188 43.8385C287.167 44.4219 286.323 45.2344 285.656 46.276C284.99 47.3177 284.5 48.5156 284.188 49.8698C283.875 51.2031 283.719 52.6198 283.719 54.1198ZM321.406 44.776V71.3698H313.875V37.5573H320.969L321.406 44.776ZM320.062 53.2135L317.625 53.1823C317.646 50.7864 317.979 48.5885 318.625 46.5885C319.292 44.5885 320.208 42.8698 321.375 41.4323C322.562 39.9948 323.979 38.8906 325.625 38.1198C327.271 37.3281 329.104 36.9323 331.125 36.9323C332.75 36.9323 334.219 37.1614 335.531 37.6198C336.865 38.0573 338 38.776 338.938 39.776C339.896 40.776 340.625 42.0781 341.125 43.6823C341.625 45.2656 341.875 47.2135 341.875 49.526V71.3698H334.312V49.4948C334.312 47.8698 334.073 46.5885 333.594 45.651C333.135 44.6927 332.458 44.0156 331.562 43.6198C330.688 43.2031 329.594 42.9948 328.281 42.9948C326.99 42.9948 325.833 43.2656 324.812 43.8073C323.792 44.3489 322.927 45.0885 322.219 46.026C321.531 46.9635 321 48.0469 320.625 49.276C320.25 50.5052 320.062 51.8177 320.062 53.2135ZM364.469 71.9948C361.969 71.9948 359.708 71.5885 357.688 70.776C355.688 69.9427 353.979 68.7864 352.562 67.3073C351.167 65.8281 350.094 64.0885 349.344 62.0885C348.594 60.0885 348.219 57.9323 348.219 55.6198V54.3698C348.219 51.7239 348.604 49.3281 349.375 47.1823C350.146 45.0364 351.219 43.2031 352.594 41.6823C353.969 40.1406 355.594 38.9635 357.469 38.151C359.344 37.3385 361.375 36.9323 363.562 36.9323C365.979 36.9323 368.094 37.3385 369.906 38.151C371.719 38.9635 373.219 40.1094 374.406 41.5885C375.615 43.0469 376.51 44.7864 377.094 46.8073C377.698 48.8281 378 51.0573 378 53.4948V56.7135H351.875V51.3073H370.562V50.7135C370.521 49.3594 370.25 48.0885 369.75 46.901C369.271 45.7135 368.531 44.7552 367.531 44.026C366.531 43.2969 365.198 42.9323 363.531 42.9323C362.281 42.9323 361.167 43.2031 360.188 43.7448C359.229 44.2656 358.427 45.026 357.781 46.026C357.135 47.026 356.635 48.2344 356.281 49.651C355.948 51.0469 355.781 52.6198 355.781 54.3698V55.6198C355.781 57.0989 355.979 58.4739 356.375 59.7448C356.792 60.9948 357.396 62.0885 358.188 63.026C358.979 63.9635 359.938 64.7031 361.062 65.2448C362.188 65.7656 363.469 66.026 364.906 66.026C366.719 66.026 368.333 65.6614 369.75 64.9323C371.167 64.2031 372.396 63.1719 373.438 61.8385L377.406 65.6823C376.677 66.7448 375.729 67.7656 374.562 68.7448C373.396 69.7031 371.969 70.4844 370.281 71.0885C368.615 71.6927 366.677 71.9948 364.469 71.9948ZM404.5 64.3698V23.3698H412.062V71.3698H405.219L404.5 64.3698ZM382.5 54.8385V54.1823C382.5 51.6198 382.802 49.2864 383.406 47.1823C384.01 45.0573 384.885 43.2344 386.031 41.7135C387.177 40.1719 388.573 38.9948 390.219 38.1823C391.865 37.3489 393.719 36.9323 395.781 36.9323C397.823 36.9323 399.615 37.3281 401.156 38.1198C402.698 38.9114 404.01 40.0469 405.094 41.526C406.177 42.9844 407.042 44.7344 407.688 46.776C408.333 48.7969 408.792 51.0469 409.062 53.526V55.6198C408.792 58.0364 408.333 60.2448 407.688 62.2448C407.042 64.2448 406.177 65.9739 405.094 67.4323C404.01 68.8906 402.688 70.0156 401.125 70.8073C399.583 71.5989 397.781 71.9948 395.719 71.9948C393.677 71.9948 391.833 71.5677 390.188 70.7135C388.562 69.8594 387.177 68.6614 386.031 67.1198C384.885 65.5781 384.01 63.7656 383.406 61.6823C382.802 59.5781 382.5 57.2969 382.5 54.8385ZM390.031 54.1823V54.8385C390.031 56.3802 390.167 57.8177 390.438 59.151C390.729 60.4844 391.177 61.6614 391.781 62.6823C392.385 63.6823 393.167 64.4739 394.125 65.0573C395.104 65.6198 396.271 65.901 397.625 65.901C399.333 65.901 400.74 65.526 401.844 64.776C402.948 64.026 403.812 63.0156 404.438 61.7448C405.083 60.4531 405.521 59.0156 405.75 57.4323V51.776C405.625 50.5469 405.365 49.401 404.969 48.3385C404.594 47.276 404.083 46.3489 403.438 45.5573C402.792 44.7448 401.99 44.1198 401.031 43.6823C400.094 43.2239 398.979 42.9948 397.688 42.9948C396.312 42.9948 395.146 43.2864 394.188 43.8698C393.229 44.4531 392.438 45.2552 391.812 46.276C391.208 47.2969 390.76 48.4844 390.469 49.8385C390.177 51.1927 390.031 52.6406 390.031 54.1823Z" fill="white"/>
</svg>
